<svg xmlns="http://www.w3.org/2000/svg" xmlns:xlink="http://www.w3.org/1999/xlink" width="80" zoomAndPan="magnify" viewBox="0 0 60 60" height="80" preserveAspectRatio="xMidYMid meet" version="1.0"><defs><clipPath id="6de4511bb9"><path d="M 8 10 L 58.464844 10 L 58.464844 58.464844 L 8 58.464844 Z M 8 10 " clip-rule="nonzero"/></clipPath><clipPath id="0079d631cc"><path d="M 1.464844 1.464844 L 52 1.464844 L 52 50 L 1.464844 50 Z M 1.464844 1.464844 " clip-rule="nonzero"/></clipPath></defs><rect x="-6" width="72" fill="#ffffff" y="-6" height="72" fill-opacity="1"/><rect x="-6" width="72" fill="#ffffff" y="-6" height="72" fill-opacity="1"/><rect x="-6" width="72" fill="#ffffff" y="-6" height="72" fill-opacity="1"/><g clip-path="url(#6de4511bb9)"><path fill="#125873" d="M 57.253906 21.71875 C 57.191406 21.515625 57.125 21.308594 57.058594 21.101562 C 57.039062 21.050781 57.023438 20.996094 57.003906 20.945312 C 56.953125 20.785156 56.898438 20.628906 56.84375 20.472656 C 56.824219 20.421875 56.808594 20.371094 56.789062 20.320312 C 56.730469 20.15625 56.667969 19.988281 56.605469 19.824219 C 56.59375 19.789062 56.578125 19.753906 56.566406 19.71875 C 56.488281 19.519531 56.410156 19.320312 56.328125 19.125 L 56.328125 19.121094 C 55.519531 17.15625 54.496094 15.300781 53.289062 13.585938 L 48.285156 13.804688 L 47.699219 13.828125 C 45.949219 13.90625 44.230469 13.40625 42.78125 12.417969 C 40.121094 10.601562 36.3125 10.355469 34.039062 10.609375 C 31.390625 10.90625 23.628906 9.53125 23.441406 11.605469 C 23.3125 12.976562 31.738281 12.800781 31.847656 13.316406 C 32.085938 14.453125 20.820312 13.28125 20.722656 15.582031 C 20.652344 17.359375 31.96875 16.042969 31.785156 17.019531 C 31.625 17.851562 19.328125 17.359375 19.328125 19.355469 C 19.328125 21.585938 31.398438 19.328125 31.484375 20.371094 C 31.484375 20.371094 27.925781 21.71875 27.699219 25.03125 C 27.386719 29.625 30.886719 32.722656 30.308594 26.808594 C 29.839844 22.007812 36.726562 21.644531 37.089844 23.058594 C 37.375 24.167969 34.222656 27.429688 33.679688 28.808594 C 32.273438 32.386719 34.183594 32.734375 34.183594 32.734375 C 34.183594 32.734375 34.898438 30.597656 39.929688 26.355469 C 40.992188 25.457031 41.863281 24.535156 42.578125 23.640625 C 44.335938 21.4375 47.136719 20.34375 49.925781 20.722656 L 52.738281 21.105469 C 53.804688 23.851562 54.390625 26.839844 54.390625 29.964844 C 54.390625 43.453125 43.453125 54.390625 29.964844 54.390625 C 23.625 54.390625 17.847656 51.976562 13.507812 48.015625 C 13.246094 47.980469 12.984375 47.960938 12.714844 47.960938 C 12.628906 47.960938 12.539062 47.964844 12.453125 47.96875 L 11.726562 48 L 8.03125 48.160156 C 13.257812 54.453125 21.144531 58.464844 29.964844 58.464844 C 45.703125 58.464844 58.464844 45.703125 58.464844 29.964844 C 58.464844 27.097656 58.039062 24.332031 57.253906 21.71875 " fill-opacity="1" fill-rule="nonzero"/></g><g clip-path="url(#0079d631cc)"><path fill="#00c2cb" d="M 29.964844 1.464844 C 14.222656 1.464844 1.464844 14.222656 1.464844 29.964844 C 1.464844 32.828125 1.886719 35.597656 2.675781 38.207031 C 2.726562 38.371094 2.777344 38.535156 2.828125 38.699219 C 2.84375 38.75 2.863281 38.800781 2.878906 38.851562 C 2.917969 38.96875 2.957031 39.085938 2.996094 39.203125 C 3.015625 39.257812 3.03125 39.308594 3.050781 39.359375 C 3.101562 39.503906 3.152344 39.644531 3.203125 39.785156 C 3.210938 39.804688 3.21875 39.828125 3.226562 39.847656 C 3.28125 40.003906 3.34375 40.160156 3.402344 40.3125 C 3.425781 40.371094 3.449219 40.425781 3.46875 40.484375 C 3.511719 40.585938 3.554688 40.691406 3.597656 40.796875 C 3.621094 40.855469 3.644531 40.914062 3.667969 40.972656 C 3.71875 41.09375 3.769531 41.210938 3.820312 41.328125 C 3.839844 41.367188 3.855469 41.40625 3.871094 41.445312 C 4.632812 43.171875 5.5625 44.8125 6.636719 46.339844 L 11.644531 46.121094 L 12.371094 46.089844 C 14.027344 46.019531 15.675781 46.46875 17.03125 47.429688 C 19.695312 49.316406 23.582031 49.574219 25.890625 49.316406 C 28.539062 49.019531 36.296875 50.398438 36.488281 48.320312 C 36.613281 46.953125 28.191406 47.125 28.082031 46.609375 C 27.839844 45.472656 39.109375 46.644531 39.203125 44.34375 C 39.277344 42.566406 27.957031 43.882812 28.144531 42.910156 C 28.304688 42.074219 40.601562 42.566406 40.601562 40.570312 C 40.601562 38.339844 28.53125 40.597656 28.441406 39.554688 C 28.355469 38.515625 38.902344 38.054688 37.898438 35.644531 C 37.082031 33.695312 23.199219 38.285156 22.835938 36.867188 C 22.550781 35.761719 25.707031 32.496094 26.25 31.117188 C 27.65625 27.542969 25.746094 27.191406 25.746094 27.191406 C 25.746094 27.191406 25.027344 29.332031 19.996094 33.574219 C 18.894531 34.503906 17.996094 35.460938 17.269531 36.390625 C 15.597656 38.515625 12.925781 39.601562 10.242188 39.234375 L 7.191406 38.820312 C 6.121094 36.074219 5.535156 33.089844 5.535156 29.964844 C 5.535156 16.472656 16.472656 5.535156 29.964844 5.535156 C 36.289062 5.535156 42.050781 7.941406 46.390625 11.882812 C 46.707031 11.933594 47.027344 11.960938 47.351562 11.960938 C 47.4375 11.960938 47.527344 11.957031 47.617188 11.953125 L 48.199219 11.925781 L 51.898438 11.765625 C 46.667969 5.472656 38.785156 1.464844 29.964844 1.464844 " fill-opacity="1" fill-rule="nonzero"/></g></svg>