<svg xmlns="http://www.w3.org/2000/svg" xmlns:xlink="http://www.w3.org/1999/xlink" width="170" zoomAndPan="magnify" viewBox="0 0 127.5 30.000001" height="40" preserveAspectRatio="xMidYMid meet" version="1.0"><defs><g/><clipPath id="3771b6c256"><path d="M 8 6 L 30.460938 6 L 30.460938 27.0625 L 8 27.0625 Z M 8 6 " clip-rule="nonzero"/></clipPath><clipPath id="6f9781b2ea"><path d="M 5.6875 2.289062 L 28 2.289062 L 28 24 L 5.6875 24 Z M 5.6875 2.289062 " clip-rule="nonzero"/></clipPath></defs><g clip-path="url(#3771b6c256)"><path fill="#125873" d="M 29.933594 11.09375 C 29.90625 11.003906 29.878906 10.914062 29.851562 10.824219 C 29.84375 10.800781 29.835938 10.777344 29.828125 10.753906 C 29.804688 10.6875 29.78125 10.617188 29.757812 10.550781 C 29.75 10.527344 29.742188 10.507812 29.734375 10.484375 C 29.707031 10.414062 29.679688 10.339844 29.652344 10.269531 C 29.648438 10.253906 29.640625 10.238281 29.636719 10.222656 C 29.601562 10.136719 29.570312 10.050781 29.535156 9.964844 L 29.53125 9.960938 C 29.179688 9.109375 28.738281 8.300781 28.214844 7.558594 L 26.035156 7.652344 L 25.78125 7.664062 C 25.023438 7.695312 24.273438 7.476562 23.644531 7.050781 C 22.488281 6.261719 20.832031 6.152344 19.84375 6.265625 C 18.695312 6.394531 15.320312 5.792969 15.238281 6.695312 C 15.183594 7.292969 18.84375 7.214844 18.894531 7.441406 C 18.996094 7.933594 14.101562 7.425781 14.058594 8.425781 C 14.027344 9.199219 18.945312 8.625 18.867188 9.050781 C 18.796875 9.410156 13.453125 9.199219 13.453125 10.066406 C 13.453125 11.035156 18.699219 10.054688 18.734375 10.507812 C 18.734375 10.507812 17.1875 11.089844 17.089844 12.53125 C 16.953125 14.527344 18.476562 15.875 18.222656 13.304688 C 18.019531 11.214844 21.015625 11.058594 21.171875 11.675781 C 21.296875 12.15625 19.925781 13.574219 19.6875 14.175781 C 19.078125 15.726562 19.910156 15.878906 19.910156 15.878906 C 19.910156 15.878906 20.21875 14.949219 22.40625 13.105469 C 22.867188 12.714844 23.246094 12.316406 23.558594 11.925781 C 24.320312 10.96875 25.539062 10.496094 26.75 10.660156 L 27.972656 10.824219 C 28.4375 12.019531 28.691406 13.316406 28.691406 14.675781 C 28.691406 20.539062 23.9375 25.292969 18.074219 25.292969 C 15.320312 25.292969 12.808594 24.242188 10.921875 22.519531 C 10.808594 22.507812 10.695312 22.5 10.578125 22.5 C 10.539062 22.5 10.5 22.5 10.464844 22.5 L 10.148438 22.515625 L 8.542969 22.585938 C 10.8125 25.320312 14.242188 27.0625 18.074219 27.0625 C 24.914062 27.0625 30.460938 21.515625 30.460938 14.675781 C 30.460938 13.429688 30.277344 12.226562 29.933594 11.09375 " fill-opacity="1" fill-rule="nonzero"/></g><g clip-path="url(#6f9781b2ea)"><path fill="#00c2cb" d="M 18.074219 2.289062 C 11.234375 2.289062 5.6875 7.835938 5.6875 14.675781 C 5.6875 15.921875 5.871094 17.125 6.214844 18.257812 C 6.234375 18.328125 6.257812 18.402344 6.28125 18.472656 C 6.289062 18.496094 6.296875 18.515625 6.300781 18.539062 C 6.320312 18.589844 6.335938 18.640625 6.355469 18.691406 C 6.363281 18.714844 6.371094 18.738281 6.378906 18.761719 C 6.398438 18.820312 6.421875 18.882812 6.441406 18.941406 C 6.445312 18.953125 6.449219 18.960938 6.453125 18.972656 C 6.476562 19.039062 6.503906 19.105469 6.53125 19.175781 C 6.539062 19.199219 6.550781 19.222656 6.558594 19.246094 C 6.578125 19.292969 6.59375 19.339844 6.613281 19.382812 C 6.625 19.410156 6.636719 19.433594 6.644531 19.460938 C 6.667969 19.511719 6.691406 19.5625 6.710938 19.613281 C 6.71875 19.632812 6.726562 19.648438 6.734375 19.664062 C 7.066406 20.417969 7.46875 21.128906 7.9375 21.792969 L 10.113281 21.699219 L 10.429688 21.683594 C 11.148438 21.652344 11.863281 21.851562 12.453125 22.265625 C 13.609375 23.085938 15.300781 23.199219 16.304688 23.085938 C 17.453125 22.957031 20.828125 23.554688 20.910156 22.652344 C 20.964844 22.058594 17.304688 22.132812 17.257812 21.910156 C 17.152344 21.417969 22.050781 21.925781 22.089844 20.925781 C 22.121094 20.152344 17.203125 20.726562 17.285156 20.300781 C 17.351562 19.9375 22.699219 20.152344 22.699219 19.285156 C 22.699219 18.316406 17.449219 19.296875 17.414062 18.84375 C 17.375 18.390625 21.960938 18.191406 21.523438 17.144531 C 21.167969 16.296875 15.132812 18.292969 14.976562 17.675781 C 14.851562 17.195312 16.222656 15.777344 16.460938 15.175781 C 17.070312 13.621094 16.242188 13.472656 16.242188 13.472656 C 16.242188 13.472656 15.929688 14.398438 13.742188 16.246094 C 13.261719 16.648438 12.875 17.066406 12.558594 17.46875 C 11.832031 18.394531 10.667969 18.863281 9.503906 18.707031 L 8.175781 18.523438 C 7.710938 17.332031 7.457031 16.035156 7.457031 14.675781 C 7.457031 8.8125 12.210938 4.058594 18.074219 4.058594 C 20.824219 4.058594 23.328125 5.101562 25.214844 6.816406 C 25.351562 6.839844 25.492188 6.851562 25.632812 6.851562 C 25.667969 6.851562 25.707031 6.847656 25.746094 6.847656 L 26 6.835938 L 27.605469 6.765625 C 25.335938 4.03125 21.910156 2.289062 18.074219 2.289062 " fill-opacity="1" fill-rule="nonzero"/></g><g fill="#000000" fill-opacity="1"><g transform="translate(31.884728, 17.755755)"><g><path d="M 3.078125 0 L 3.078125 -7.625 L 0.15625 -7.625 L 0.15625 -8.984375 L 7.65625 -8.984375 L 7.65625 -7.625 L 4.71875 -7.625 L 4.71875 0 Z M 3.078125 0 "/></g></g></g><g fill="#000000" fill-opacity="1"><g transform="translate(39.688756, 17.755755)"><g><path d="M 8.5 0 L 6.71875 0 L 5.171875 -2.859375 C 5.023438 -3.128906 4.84375 -3.320312 4.625 -3.4375 C 4.414062 -3.550781 4.148438 -3.609375 3.828125 -3.609375 L 2.578125 -3.609375 L 2.578125 0 L 0.96875 0 L 0.96875 -8.984375 L 4.9375 -8.984375 C 5.957031 -8.984375 6.734375 -8.753906 7.265625 -8.296875 C 7.796875 -7.835938 8.0625 -7.179688 8.0625 -6.328125 C 8.0625 -5.640625 7.867188 -5.070312 7.484375 -4.625 C 7.097656 -4.175781 6.550781 -3.882812 5.84375 -3.75 C 6.320312 -3.625 6.703125 -3.289062 6.984375 -2.75 Z M 4.71875 -4.859375 C 5.332031 -4.859375 5.78125 -4.972656 6.0625 -5.203125 C 6.351562 -5.441406 6.5 -5.804688 6.5 -6.296875 C 6.5 -6.785156 6.351562 -7.140625 6.0625 -7.359375 C 5.78125 -7.585938 5.332031 -7.703125 4.71875 -7.703125 L 2.578125 -7.703125 L 2.578125 -4.859375 Z M 4.71875 -4.859375 "/></g></g></g><g fill="#000000" fill-opacity="1"><g transform="translate(48.536718, 17.755755)"><g><path d="M 7.828125 0 L 6.921875 -2.09375 L 2.5625 -2.09375 L 1.65625 0 L 0 0 L 4.0625 -8.984375 L 5.40625 -8.984375 L 9.46875 0 Z M 3.09375 -3.375 L 6.375 -3.375 L 4.734375 -7.1875 Z M 3.09375 -3.375 "/></g></g></g><g fill="#000000" fill-opacity="1"><g transform="translate(57.983038, 17.755755)"><g><path d="M 6.5 -4.640625 C 7.007812 -4.492188 7.40625 -4.226562 7.6875 -3.84375 C 7.976562 -3.457031 8.125 -2.988281 8.125 -2.4375 C 8.125 -1.675781 7.847656 -1.078125 7.296875 -0.640625 C 6.753906 -0.210938 6.003906 0 5.046875 0 L 0.96875 0 L 0.96875 -8.984375 L 4.921875 -8.984375 C 5.847656 -8.984375 6.578125 -8.773438 7.109375 -8.359375 C 7.640625 -7.953125 7.90625 -7.378906 7.90625 -6.640625 C 7.90625 -6.160156 7.78125 -5.742188 7.53125 -5.390625 C 7.28125 -5.046875 6.9375 -4.796875 6.5 -4.640625 Z M 2.578125 -5.203125 L 4.640625 -5.203125 C 5.773438 -5.203125 6.34375 -5.617188 6.34375 -6.453125 C 6.34375 -6.878906 6.203125 -7.191406 5.921875 -7.390625 C 5.640625 -7.597656 5.210938 -7.703125 4.640625 -7.703125 L 2.578125 -7.703125 Z M 4.859375 -1.28125 C 5.453125 -1.28125 5.882812 -1.382812 6.15625 -1.59375 C 6.4375 -1.800781 6.578125 -2.128906 6.578125 -2.578125 C 6.578125 -3.035156 6.4375 -3.375 6.15625 -3.59375 C 5.882812 -3.8125 5.453125 -3.921875 4.859375 -3.921875 L 2.578125 -3.921875 L 2.578125 -1.28125 Z M 4.859375 -1.28125 "/></g></g></g><g fill="#000000" fill-opacity="1"><g transform="translate(66.678234, 17.755755)"><g><path d="M 7.828125 0 L 6.921875 -2.09375 L 2.5625 -2.09375 L 1.65625 0 L 0 0 L 4.0625 -8.984375 L 5.40625 -8.984375 L 9.46875 0 Z M 3.09375 -3.375 L 6.375 -3.375 L 4.734375 -7.1875 Z M 3.09375 -3.375 "/></g></g></g><g fill="#000000" fill-opacity="1"><g transform="translate(76.124554, 17.755755)"><g><path d="M -0.078125 -1.203125 L 0.8125 -1.28125 C 1.570312 -1.320312 1.953125 -1.734375 1.953125 -2.515625 L 1.953125 -8.984375 L 3.59375 -8.984375 L 3.59375 -2.53125 C 3.59375 -1.738281 3.378906 -1.125 2.953125 -0.6875 C 2.535156 -0.25 1.910156 -0.00390625 1.078125 0.046875 L 0.03125 0.109375 Z M -0.078125 -1.203125 "/></g></g></g><g fill="#000000" fill-opacity="1"><g transform="translate(80.682216, 17.755755)"><g><path d="M 4.96875 0.109375 C 4.09375 0.109375 3.332031 -0.0703125 2.6875 -0.4375 C 2.050781 -0.8125 1.554688 -1.347656 1.203125 -2.046875 C 0.859375 -2.742188 0.6875 -3.5625 0.6875 -4.5 C 0.6875 -5.425781 0.859375 -6.234375 1.203125 -6.921875 C 1.546875 -7.617188 2.039062 -8.15625 2.6875 -8.53125 C 3.332031 -8.90625 4.09375 -9.09375 4.96875 -9.09375 C 5.84375 -9.09375 6.597656 -8.90625 7.234375 -8.53125 C 7.878906 -8.15625 8.375 -7.617188 8.71875 -6.921875 C 9.0625 -6.234375 9.234375 -5.425781 9.234375 -4.5 C 9.234375 -3.5625 9.054688 -2.742188 8.703125 -2.046875 C 8.359375 -1.347656 7.863281 -0.8125 7.21875 -0.4375 C 6.582031 -0.0703125 5.832031 0.109375 4.96875 0.109375 Z M 4.96875 -1.203125 C 5.789062 -1.203125 6.429688 -1.484375 6.890625 -2.046875 C 7.359375 -2.617188 7.59375 -3.4375 7.59375 -4.5 C 7.59375 -5.5625 7.359375 -6.375 6.890625 -6.9375 C 6.429688 -7.5 5.789062 -7.78125 4.96875 -7.78125 C 4.132812 -7.78125 3.484375 -7.5 3.015625 -6.9375 C 2.554688 -6.375 2.328125 -5.5625 2.328125 -4.5 C 2.328125 -3.4375 2.554688 -2.617188 3.015625 -2.046875 C 3.484375 -1.484375 4.132812 -1.203125 4.96875 -1.203125 Z M 4.96875 -1.203125 "/></g></g></g><g fill="#000000" fill-opacity="1"><g transform="translate(90.615458, 17.755755)"><g><path d="M 1.109375 0 L 1.109375 -8.984375 L 6.65625 -8.984375 L 6.65625 -8.09375 L 2.140625 -8.09375 L 2.140625 -5 L 6.40625 -5 L 6.40625 -4.125 L 2.140625 -4.125 L 2.140625 0 Z M 1.109375 0 "/></g></g></g><g fill="#000000" fill-opacity="1"><g transform="translate(97.706564, 17.755755)"><g><path d="M 1.109375 0 L 1.109375 -8.984375 L 2.15625 -8.984375 L 2.15625 0 Z M 1.109375 0 "/></g></g></g><g fill="#000000" fill-opacity="1"><g transform="translate(100.96567, 17.755755)"><g><path d="M 3.953125 0.109375 C 2.554688 0.109375 1.4375 -0.269531 0.59375 -1.03125 L 1 -1.828125 C 1.445312 -1.460938 1.898438 -1.195312 2.359375 -1.03125 C 2.828125 -0.875 3.363281 -0.796875 3.96875 -0.796875 C 4.695312 -0.796875 5.253906 -0.929688 5.640625 -1.203125 C 6.035156 -1.484375 6.234375 -1.878906 6.234375 -2.390625 C 6.234375 -2.691406 6.140625 -2.9375 5.953125 -3.125 C 5.765625 -3.3125 5.515625 -3.457031 5.203125 -3.5625 C 4.898438 -3.675781 4.488281 -3.789062 3.96875 -3.90625 C 3.269531 -4.070312 2.695312 -4.242188 2.25 -4.421875 C 1.8125 -4.597656 1.453125 -4.847656 1.171875 -5.171875 C 0.898438 -5.503906 0.765625 -5.941406 0.765625 -6.484375 C 0.765625 -6.992188 0.894531 -7.445312 1.15625 -7.84375 C 1.425781 -8.238281 1.8125 -8.539062 2.3125 -8.75 C 2.8125 -8.96875 3.382812 -9.078125 4.03125 -9.078125 C 4.65625 -9.078125 5.234375 -8.976562 5.765625 -8.78125 C 6.304688 -8.59375 6.765625 -8.316406 7.140625 -7.953125 L 6.75 -7.140625 C 6.320312 -7.503906 5.890625 -7.769531 5.453125 -7.9375 C 5.015625 -8.101562 4.539062 -8.1875 4.03125 -8.1875 C 3.34375 -8.1875 2.800781 -8.039062 2.40625 -7.75 C 2.007812 -7.457031 1.8125 -7.046875 1.8125 -6.515625 C 1.8125 -6.066406 1.984375 -5.726562 2.328125 -5.5 C 2.679688 -5.269531 3.207031 -5.078125 3.90625 -4.921875 C 4.675781 -4.734375 5.28125 -4.5625 5.71875 -4.40625 C 6.164062 -4.25 6.535156 -4.007812 6.828125 -3.6875 C 7.117188 -3.375 7.265625 -2.957031 7.265625 -2.4375 C 7.265625 -1.925781 7.128906 -1.476562 6.859375 -1.09375 C 6.597656 -0.707031 6.21875 -0.410156 5.71875 -0.203125 C 5.21875 0.00390625 4.628906 0.109375 3.953125 0.109375 Z M 3.953125 0.109375 "/></g></g></g><g fill="#000000" fill-opacity="1"><g transform="translate(108.820625, 17.755755)"><g><path d="M 1.109375 0 L 1.109375 -8.984375 L 2.15625 -8.984375 L 2.15625 0 Z M 1.109375 0 "/></g></g></g><g fill="#000000" fill-opacity="1"><g transform="translate(112.079731, 17.755755)"><g><path d="M 4.859375 0.109375 C 4.023438 0.109375 3.300781 -0.078125 2.6875 -0.453125 C 2.070312 -0.828125 1.597656 -1.359375 1.265625 -2.046875 C 0.941406 -2.734375 0.78125 -3.546875 0.78125 -4.484375 C 0.78125 -5.421875 0.941406 -6.234375 1.265625 -6.921875 C 1.585938 -7.617188 2.054688 -8.148438 2.671875 -8.515625 C 3.296875 -8.890625 4.023438 -9.078125 4.859375 -9.078125 C 5.703125 -9.078125 6.429688 -8.890625 7.046875 -8.515625 C 7.660156 -8.148438 8.128906 -7.617188 8.453125 -6.921875 C 8.785156 -6.234375 8.953125 -5.425781 8.953125 -4.5 C 8.953125 -3.5625 8.785156 -2.742188 8.453125 -2.046875 C 8.117188 -1.359375 7.644531 -0.828125 7.03125 -0.453125 C 6.414062 -0.078125 5.691406 0.109375 4.859375 0.109375 Z M 4.859375 -0.796875 C 5.816406 -0.796875 6.554688 -1.113281 7.078125 -1.75 C 7.609375 -2.394531 7.875 -3.3125 7.875 -4.5 C 7.875 -5.6875 7.609375 -6.597656 7.078125 -7.234375 C 6.554688 -7.867188 5.816406 -8.1875 4.859375 -8.1875 C 3.910156 -8.1875 3.171875 -7.863281 2.640625 -7.21875 C 2.109375 -6.582031 1.84375 -5.675781 1.84375 -4.5 C 1.84375 -3.3125 2.109375 -2.394531 2.640625 -1.75 C 3.171875 -1.113281 3.910156 -0.796875 4.859375 -0.796875 Z M 4.859375 -0.796875 "/></g></g></g></svg>